<svg width="165" height="129" viewBox="0 0 165 129" fill="none" xmlns="http://www.w3.org/2000/svg">
<path d="M12.375 58.5005H82.5V70.188H12.375V58.5005ZM0.6875 29.2817H59.125V40.9692H0.6875V29.2817Z" fill="#BF86AE"/>
<path d="M163.839 62.0418L146.308 21.1355C145.858 20.0841 145.109 19.188 144.154 18.5585C143.2 17.9289 142.081 17.5936 140.937 17.5942H123.406V5.90674C123.406 4.35688 122.791 2.8705 121.695 1.77458C120.599 0.678668 119.112 0.0629883 117.562 0.0629883H24.0625V11.7505H111.719V85.1246C109.056 86.6708 106.726 88.7289 104.862 91.1802C102.998 93.6314 101.639 96.4274 100.861 99.4067H64.1389C62.7166 93.8981 59.334 89.0972 54.6252 85.9042C49.9165 82.7111 44.2048 81.3449 38.5608 82.0618C32.9168 82.7787 27.7281 85.5294 23.9671 89.7982C20.2061 94.0671 18.1312 99.5612 18.1312 105.25C18.1312 110.94 20.2061 116.434 23.9671 120.703C27.7281 124.972 32.9168 127.722 38.5608 128.439C44.2048 129.156 49.9165 127.79 54.6252 124.597C59.334 121.404 62.7166 116.603 64.1389 111.094H100.861C102.132 116.11 105.039 120.558 109.123 123.735C113.206 126.913 118.232 128.638 123.406 128.638C128.58 128.638 133.606 126.913 137.69 123.735C141.773 120.558 144.68 116.11 145.951 111.094H158.469C160.019 111.094 161.505 110.479 162.601 109.383C163.697 108.287 164.312 106.8 164.312 105.25V64.3442C164.313 63.5526 164.152 62.7691 163.839 62.0418ZM41.5937 116.938C39.2822 116.938 37.0225 116.253 35.1005 114.968C33.1785 113.684 31.6805 111.859 30.7959 109.723C29.9113 107.587 29.6798 105.238 30.1308 102.97C30.5818 100.703 31.6949 98.6207 33.3294 96.9862C34.9639 95.3516 37.0464 94.2385 39.3136 93.7876C41.5808 93.3366 43.9307 93.568 46.0663 94.4526C48.2019 95.3372 50.0273 96.8353 51.3115 98.7572C52.5958 100.679 53.2812 102.939 53.2812 105.25C53.2781 108.349 52.0458 111.32 49.8546 113.511C47.6635 115.703 44.6925 116.935 41.5937 116.938ZM123.406 29.2817H137.081L149.61 58.5005H123.406V29.2817ZM123.406 116.938C121.095 116.938 118.835 116.253 116.913 114.968C114.991 113.684 113.493 111.859 112.608 109.723C111.724 107.587 111.492 105.238 111.943 102.97C112.394 100.703 113.507 98.6207 115.142 96.9862C116.776 95.3516 118.859 94.2385 121.126 93.7876C123.393 93.3366 125.743 93.568 127.879 94.4526C130.014 95.3372 131.84 96.8353 133.124 98.7572C134.408 100.679 135.094 102.939 135.094 105.25C135.091 108.349 133.858 111.32 131.667 113.511C129.476 115.703 126.505 116.935 123.406 116.938ZM152.625 99.4067H145.951C144.664 94.4012 141.752 89.9643 137.672 86.7916C133.592 83.6189 128.575 81.8899 123.406 81.8755V70.188H152.625V99.4067Z" fill="#BF86AE"/>
<path d="M106.625 93.3333L88.0172 74.7254C85.1258 71.8349 83.501 67.9143 83.5001 63.8258V16.25" stroke="#BF86AE" stroke-width="12" stroke-linecap="round" stroke-linejoin="round"/>
</svg>
