<svg width="21" height="22" viewBox="0 0 21 22" fill="none" xmlns="http://www.w3.org/2000/svg">
<path d="M12.2312 11L20.9367 0.442025C21.0826 0.266565 20.9599 0 20.7344 0H18.0879C17.9321 0 17.7828 0.0708588 17.68 0.192331L10.5 8.90122L3.31999 0.192331C3.22049 0.0708588 3.07126 0 2.91207 0H0.265578C0.0400627 0 -0.0826445 0.266565 0.0632773 0.442025L8.76884 11L0.0632773 21.558C0.0305895 21.5971 0.00961902 21.6449 0.00285477 21.6958C-0.00390948 21.7467 0.00381662 21.7984 0.0251166 21.845C0.0464166 21.8915 0.0803958 21.9309 0.123019 21.9583C0.165643 21.9858 0.21512 22.0003 0.265578 22H2.91207C3.06794 22 3.21718 21.9291 3.31999 21.8077L10.5 13.0988L17.68 21.8077C17.7795 21.9291 17.9287 22 18.0879 22H20.7344C20.9599 22 21.0826 21.7334 20.9367 21.558L12.2312 11Z" fill="#886788"/>
</svg>
