<svg width="40" height="40" viewBox="0 0 40 40" fill="none" xmlns="http://www.w3.org/2000/svg">
<circle cx="20" cy="20" r="20" fill="#886788"/>
<path d="M24.563 16.6417C26.0951 17.7461 27.9722 18.3959 29.9994 18.3959V14.4624C29.6157 14.4625 29.2331 14.4221 28.8577 14.3419V17.4382C26.8306 17.4382 24.9538 16.7884 23.4213 15.6841V23.7114C23.4213 27.7271 20.1929 30.9821 16.2108 30.9821C14.7249 30.9821 13.3439 30.5292 12.1967 29.7523C13.506 31.1024 15.3321 31.9398 17.3522 31.9398C21.3346 31.9398 24.5631 28.6847 24.5631 24.6689V16.6417H24.563V16.6417ZM25.9714 12.6733C25.1884 11.8107 24.6742 10.6959 24.563 9.46348V8.95758H23.481C23.7534 10.524 24.6823 11.8622 25.9713 12.6733H25.9714ZM14.7153 26.6709C14.2779 26.0925 14.0414 25.3849 14.0424 24.6574C14.0424 22.8208 15.5191 21.3316 17.3409 21.3316C17.6804 21.3315 18.0178 21.384 18.3415 21.4875V17.466C17.9633 17.4138 17.5817 17.3915 17.2002 17.3997V20.5298C16.8765 20.4263 16.5388 20.3737 16.1992 20.374C14.3775 20.374 12.9009 21.863 12.9009 23.6999C12.9009 24.9987 13.6389 26.1231 14.7153 26.6709Z" fill="#FF004F"/>
<path d="M23.4213 15.684C24.9539 16.7884 26.8305 17.4381 28.8577 17.4381V14.3419C27.7261 14.0988 26.7245 13.5026 25.9713 12.6733C24.6822 11.8621 23.7534 10.5239 23.481 8.95758H20.6392V24.6687C20.6327 26.5003 19.1586 27.9834 17.3407 27.9834C16.2696 27.9834 15.3179 27.4685 14.7152 26.6708C13.6389 26.1231 12.9008 24.9986 12.9008 23.6999C12.9008 21.8633 14.3774 20.3741 16.1991 20.3741C16.5482 20.3741 16.8846 20.4289 17.2001 20.5299V17.3998C13.2879 17.4813 10.1416 20.7046 10.1416 24.6688C10.1416 26.6477 10.9251 28.4417 12.1967 29.7525C13.3439 30.5292 14.7249 30.9823 16.2108 30.9823C20.1931 30.9823 23.4214 27.727 23.4214 23.7114V15.6841H23.4213V15.684Z" fill="black"/>
<path d="M28.8577 14.3418V13.5048C27.8373 13.5063 26.8371 13.2182 25.9714 12.6733C26.7377 13.5193 27.7468 14.1026 28.8577 14.342V14.3418ZM23.481 8.95752C23.455 8.80786 23.4351 8.6572 23.4213 8.5059V8H19.4974V23.7113C19.4911 25.5428 18.017 27.0258 16.1991 27.0258C15.6837 27.0266 15.1753 26.905 14.7151 26.671C15.3178 27.4686 16.2695 27.9833 17.3407 27.9833C19.1585 27.9833 20.6328 26.5004 20.6392 24.6688V8.9576H23.481V8.95752ZM17.2003 17.3997V16.5085C16.8725 16.4633 16.5419 16.4407 16.211 16.4408C12.2283 16.4408 9 19.696 9 23.7113C9 26.2287 10.2688 28.4473 12.1968 29.7524C10.9252 28.4416 10.1417 26.6476 10.1417 24.6687C10.1417 20.7046 13.2879 17.4813 17.2003 17.3998V17.3997Z" fill="#00F2EA"/>
</svg>
