<svg width="23" height="21" viewBox="0 0 23 21" fill="none" xmlns="http://www.w3.org/2000/svg">
<path d="M21.5141 0.543664C21.2572 0.339247 20.9625 0.18744 20.6469 0.0969115C20.3313 0.00638299 20.001 -0.0210938 19.6747 0.0160502C19.3485 0.0531941 19.0328 0.154231 18.7457 0.313392C18.4585 0.472553 18.2055 0.68672 18.0011 0.943664L7.9661 13.5677L4.4581 9.15366C4.04542 8.6345 3.44341 8.30054 2.7845 8.22525C2.12559 8.14995 1.46376 8.33949 0.944598 8.75216C0.425436 9.16484 0.0914734 9.76685 0.0161775 10.4258C-0.0591183 11.0847 0.13042 11.7465 0.543097 12.2657L6.0081 19.1407C6.4821 19.7377 7.2031 20.0837 7.9651 20.0837C8.7271 20.0837 9.4471 19.7337 9.9221 19.1397L21.9161 4.05566C22.7761 2.97566 22.5961 1.40266 21.5141 0.543664Z" fill="white"/>
</svg>
