<svg width="29" height="46" viewBox="0 0 29 46" fill="none" xmlns="http://www.w3.org/2000/svg">
<path fill-rule="evenodd" clip-rule="evenodd" d="M14.5 0C14.0728 0 13.663 0.173075 13.3609 0.481151C13.0588 0.789227 12.8891 1.20707 12.8891 1.64275V40.3887L2.75343 30.0492C2.45094 29.7408 2.04069 29.5675 1.61292 29.5675C1.18515 29.5675 0.774893 29.7408 0.472412 30.0492C0.16993 30.3577 0 30.7761 0 31.2123C0 31.6485 0.16993 32.0669 0.472412 32.3754L13.3595 45.5174C13.5091 45.6704 13.6869 45.7917 13.8826 45.8746C14.0783 45.9574 14.2881 46 14.5 46C14.7119 46 14.9217 45.9574 15.1174 45.8746C15.3131 45.7917 15.4909 45.6704 15.6405 45.5174L28.5276 32.3754C28.8301 32.0669 29 31.6485 29 31.2123C29 30.7761 28.8301 30.3577 28.5276 30.0492C28.2251 29.7408 27.8149 29.5675 27.3871 29.5675C26.9593 29.5675 26.5491 29.7408 26.2466 30.0492L16.1109 40.3887V1.64275C16.1109 1.20707 15.9412 0.789227 15.6391 0.481151C15.337 0.173075 14.9272 0 14.5 0Z" fill="#CFD1DF"/>
</svg>
