<svg width="132" height="85" viewBox="0 0 132 85" fill="none" xmlns="http://www.w3.org/2000/svg">
<path fill-rule="evenodd" clip-rule="evenodd" d="M0 42.4324C0 41.1822 0.49665 39.9832 1.38069 39.0992C2.26474 38.2151 3.46376 37.7185 4.71398 37.7185L115.898 37.7185L86.2282 8.05807C85.343 7.17291 84.8458 5.97237 84.8458 4.72057C84.8458 3.46877 85.343 2.26823 86.2282 1.38306C87.1134 0.49791 88.3139 0.00063324 89.5657 0.00063324C90.8175 0.00063324 92.0181 0.49791 92.9032 1.38306L130.615 39.0949C131.054 39.5328 131.402 40.053 131.64 40.6257C131.878 41.1984 132 41.8124 132 42.4324C132 43.0525 131.878 43.6665 131.64 44.2392C131.402 44.8119 131.054 45.3321 130.615 45.7699L92.9032 83.4818C92.0181 84.367 90.8175 84.8643 89.5657 84.8643C88.3139 84.8643 87.1134 84.367 86.2282 83.4818C85.343 82.5967 84.8458 81.3961 84.8458 80.1443C84.8458 78.8925 85.343 77.692 86.2282 76.8068L115.898 47.1464L4.71398 47.1464C3.46376 47.1464 2.26474 46.6498 1.38069 45.7657C0.49665 44.8817 0 43.6827 0 42.4324Z" fill="#CFD1DF"/>
</svg>
