<svg width="159" height="114" viewBox="0 0 159 114" fill="none" xmlns="http://www.w3.org/2000/svg">
<path d="M107.781 79.188C106.281 79.188 104.842 79.7839 103.782 80.8447C102.721 81.9054 102.125 83.3441 102.125 84.8442C102.125 86.3444 102.721 87.7831 103.782 88.8438C104.842 89.9046 106.281 90.5005 107.781 90.5005H130.406C131.906 90.5005 133.345 89.9046 134.406 88.8438C135.467 87.7831 136.062 86.3444 136.062 84.8442C136.062 83.3441 135.467 81.9054 134.406 80.8447C133.345 79.7839 131.906 79.188 130.406 79.188H107.781ZM0.3125 22.6255C0.3125 16.625 2.6962 10.8702 6.93921 6.6272C11.1822 2.38419 16.937 0.000488281 22.9375 0.000488281H136.062C142.063 0.000488281 147.818 2.38419 152.061 6.6272C156.304 10.8702 158.688 16.625 158.688 22.6255V90.5005C158.688 96.501 156.304 102.256 152.061 106.499C147.818 110.742 142.063 113.125 136.062 113.125H22.9375C16.937 113.125 11.1822 110.742 6.93921 106.499C2.6962 102.256 0.3125 96.501 0.3125 90.5005V22.6255ZM147.375 22.6255C147.375 19.6252 146.183 16.7479 144.062 14.6263C141.94 12.5048 139.063 11.313 136.062 11.313H22.9375C19.9372 11.313 17.0599 12.5048 14.9384 14.6263C12.8168 16.7479 11.625 19.6252 11.625 22.6255V33.938H147.375V22.6255ZM11.625 90.5005C11.625 93.5007 12.8168 96.3781 14.9384 98.4996C17.0599 100.621 19.9372 101.813 22.9375 101.813H136.062C139.063 101.813 141.94 100.621 144.062 98.4996C146.183 96.3781 147.375 93.5007 147.375 90.5005V45.2505H11.625V90.5005Z" fill="#BF86AE"/>
</svg>
