<svg width="40" height="40" viewBox="0 0 40 40" fill="none" xmlns="http://www.w3.org/2000/svg">
<circle cx="20" cy="20" r="20" fill="#886788"/>
<path fill-rule="evenodd" clip-rule="evenodd" d="M25.4299 6.23478C24.0254 6.17203 23.5776 6.15808 19.9999 6.15808C16.4223 6.15808 15.9745 6.17319 14.5712 6.23478C13.1679 6.29638 12.2101 6.51369 11.3719 6.82863C10.4943 7.15055 9.69804 7.65375 9.03951 8.30455C8.369 8.94256 7.85175 9.71422 7.52128 10.5672C7.19561 11.3807 6.9729 12.3104 6.90825 13.6701C6.84359 15.0356 6.82922 15.4703 6.82922 18.9416C6.82922 22.414 6.84479 22.8487 6.90825 24.2119C6.97171 25.5716 7.19561 26.5013 7.52128 27.3148C7.85176 28.1679 8.36986 28.9408 9.03951 29.5798C9.69804 30.2306 10.4943 30.7326 11.3719 31.0534C12.2101 31.3695 13.1679 31.5856 14.5688 31.6484C15.9745 31.7111 16.4223 31.7251 19.9999 31.7251C23.5776 31.7251 24.0254 31.71 25.4299 31.6484C26.8308 31.5868 27.7886 31.3695 28.6268 31.0534C29.5057 30.7326 30.302 30.2297 30.9604 29.5798C31.6304 28.9414 32.1489 28.1688 32.4798 27.3159C32.8043 26.5024 33.027 25.5727 33.0916 24.213C33.1563 22.8475 33.1707 22.4129 33.1707 18.9416C33.1707 15.4691 33.1551 15.0345 33.0916 13.6725C33.0282 12.3104 32.8043 11.3807 32.4798 10.5672C32.1485 9.71431 31.6295 8.94176 30.9592 8.30339C30.3018 7.65317 29.5062 7.1499 28.628 6.82863C27.7898 6.51369 26.8319 6.29754 25.4311 6.23478H25.4299ZM14.6778 8.53581C16.0667 8.47422 16.4834 8.46144 19.9999 8.46144C23.5165 8.46144 23.9332 8.47422 25.3221 8.53581C26.6068 8.59276 27.3037 8.80078 27.7683 8.97626C28.3825 9.20869 28.8219 9.48412 29.2829 9.93154C29.7199 10.3442 30.0562 10.8465 30.2671 11.4016C30.4479 11.8526 30.6622 12.5289 30.7209 13.7759C30.7844 15.124 30.7975 15.5284 30.7975 18.9416C30.7975 22.3548 30.7844 22.7592 30.7209 24.1073C30.6622 25.3543 30.4479 26.0306 30.2671 26.4815C30.0564 27.0359 29.7199 27.5391 29.2829 27.9516C28.8578 28.3758 28.3394 28.7024 27.7683 28.9069C27.3037 29.0824 26.6068 29.2904 25.3221 29.3474C23.9332 29.409 23.5177 29.4217 19.9999 29.4217C16.4822 29.4217 16.0667 29.409 14.6778 29.3474C13.393 29.2904 12.6962 29.0824 12.2316 28.9069C11.6174 28.6745 11.178 28.3991 10.717 27.9516C10.2799 27.5391 9.9435 27.0359 9.73277 26.4815C9.55197 26.0306 9.33765 25.3543 9.27898 24.1073C9.21552 22.7592 9.20235 22.3548 9.20235 18.9416C9.20235 15.5284 9.21552 15.124 9.27898 13.7759C9.33765 12.5289 9.55197 11.8526 9.73277 11.4016C9.97223 10.8055 10.256 10.379 10.717 9.93154C11.1421 9.50744 11.6596 9.18104 12.2316 8.97626C12.6962 8.80078 13.393 8.59276 14.6778 8.53581V8.53581ZM21.6822 22.8824C20.7427 23.262 19.6966 23.3132 18.7225 23.0273C17.7484 22.7415 16.9067 22.1362 16.3413 21.315C15.7759 20.4937 15.5218 19.5074 15.6224 18.5245C15.723 17.5416 16.172 16.6231 16.8928 15.9258C17.3523 15.4801 17.9079 15.1389 18.5196 14.9266C19.1313 14.7143 19.7839 14.6363 20.4304 14.6982C21.0769 14.7601 21.7012 14.9603 22.2584 15.2845C22.8155 15.6087 23.2917 16.0487 23.6527 16.573C24.0136 17.0972 24.2503 17.6926 24.3457 18.3163C24.4411 18.94 24.3928 19.5765 24.2043 20.1799C24.0159 20.7833 23.692 21.3386 23.2558 21.8059C22.8197 22.2732 22.2823 22.6409 21.6822 22.8824ZM24.7869 14.2954C24.1583 13.6852 23.412 13.2012 22.5906 12.871C21.7693 12.5408 20.889 12.3708 19.9999 12.3708C19.1109 12.3708 18.2306 12.5408 17.4093 12.871C16.5879 13.2012 15.8416 13.6852 15.213 14.2954C14.5844 14.9055 14.0857 15.6299 13.7455 16.4271C13.4053 17.2243 13.2302 18.0787 13.2302 18.9416C13.2302 19.8045 13.4053 20.6589 13.7455 21.4561C14.0857 22.2533 14.5844 22.9777 15.213 23.5878C16.4826 24.8201 18.2045 25.5123 19.9999 25.5123C21.7954 25.5123 23.5173 24.8201 24.7869 23.5878C26.0565 22.3556 26.7697 20.6843 26.7697 18.9416C26.7697 17.1989 26.0565 15.5276 24.7869 14.2954V14.2954ZM11.7287 13.3494C11.573 13.2068 11.4482 13.0352 11.362 12.845C11.2757 12.6547 11.2297 12.4496 11.2265 12.2418C11.2234 12.034 11.2633 11.8276 11.3438 11.635C11.4243 11.4424 11.5438 11.2674 11.6953 11.1205C11.8467 10.9735 12.027 10.8575 12.2254 10.7793C12.4238 10.7012 12.6364 10.6625 12.8506 10.6655C13.0647 10.6686 13.276 10.7133 13.472 10.797C13.668 10.8807 13.8447 11.0017 13.9917 11.1529C14.2775 11.447 14.434 11.8376 14.4279 12.2418C14.4218 12.646 14.2537 13.032 13.9592 13.3178C13.6647 13.6037 13.267 13.7669 12.8506 13.7727C12.4341 13.7786 12.0317 13.6268 11.7287 13.3494V13.3494Z" fill="white"/>
</svg>
