<svg width="36" height="27" viewBox="0 0 36 27" fill="none" xmlns="http://www.w3.org/2000/svg">
<path fill-rule="evenodd" clip-rule="evenodd" d="M18.6094 16.1994C18.5958 16.2233 18.5808 16.2468 18.5643 16.2696C18.4886 16.374 18.4121 16.4786 18.3346 16.5832C18.2946 16.6372 18.2487 16.6843 18.1985 16.724C18.1742 16.7836 18.1419 16.8411 18.1013 16.8947C18.0231 16.9978 17.9442 17.1007 17.8644 17.2036C17.8231 17.2567 17.7762 17.3027 17.7251 17.3413C17.6995 17.4003 17.6658 17.4569 17.624 17.5096C17.5433 17.611 17.4619 17.7122 17.3796 17.8131C17.337 17.8654 17.2888 17.9103 17.2367 17.9478C17.2096 18.0063 17.1745 18.0622 17.1313 18.114C17.048 18.2136 16.9639 18.3128 16.8791 18.4116C16.8351 18.4628 16.7857 18.5065 16.7325 18.5426C16.7039 18.6004 16.6673 18.6555 16.6226 18.7061C16.5365 18.8038 16.4495 18.9009 16.3619 18.9974C16.3164 19.0475 16.2658 19.0899 16.2115 19.1245C16.1812 19.1816 16.143 19.2357 16.0967 19.2851C16.0075 19.3805 15.9176 19.4752 15.8269 19.5692C15.7798 19.618 15.7278 19.6589 15.6723 19.6919C15.6402 19.7483 15.6002 19.8013 15.5523 19.8493C15.4599 19.9421 15.3668 20.034 15.273 20.1251C15.2242 20.1724 15.1706 20.2117 15.1139 20.2429C15.0798 20.2983 15.0378 20.3501 14.9882 20.3966C14.8922 20.4865 14.7955 20.5754 14.6981 20.6633C14.6474 20.7089 14.5923 20.7463 14.5343 20.7754C14.4981 20.8296 14.4541 20.8799 14.4026 20.9245C14.3029 21.011 14.2025 21.0963 14.1014 21.1803C14.0486 21.2241 13.9917 21.2593 13.9323 21.2861C13.8936 21.339 13.8474 21.3877 13.7937 21.4303C13.6898 21.5128 13.5852 21.594 13.4799 21.6737C13.4251 21.7152 13.3665 21.7478 13.3057 21.7719C13.2645 21.8231 13.2159 21.8697 13.16 21.9098C13.0517 21.9876 12.9427 22.0639 12.833 22.1385C12.7758 22.1774 12.7151 22.2071 12.6526 22.2281C12.6085 22.2775 12.5571 22.3217 12.4988 22.359C12.4426 22.395 12.3862 22.4304 12.3297 22.4655L11.9926 22.6742L11.6334 22.5074C11.5716 22.4787 11.5088 22.4488 11.445 22.4175C11.3793 22.3855 11.3205 22.3449 11.2692 22.2977C11.2014 22.2839 11.1344 22.2602 11.0701 22.2259C10.9515 22.1627 10.8297 22.0955 10.7051 22.0243C10.6428 21.9887 10.5876 21.9453 10.54 21.8961C10.4742 21.8785 10.4097 21.8513 10.3484 21.8141C10.2339 21.7446 10.1173 21.672 9.99889 21.5962C9.93898 21.5579 9.88638 21.5123 9.84151 21.4613C9.77717 21.4406 9.71458 21.4107 9.65558 21.371C9.54433 21.2963 9.43168 21.2189 9.3178 21.1389C9.25974 21.0981 9.20926 21.0505 9.16668 20.9977C9.10341 20.9745 9.04225 20.942 8.98504 20.9001C8.87659 20.8206 8.76719 20.7388 8.65695 20.6546C8.60047 20.6115 8.55185 20.5618 8.51133 20.5074C8.4489 20.4817 8.38893 20.4468 8.33328 20.4027C8.22813 20.3192 8.12234 20.2337 8.01604 20.1462C7.96157 20.1013 7.91508 20.0502 7.87674 19.9947C7.81574 19.9668 7.75749 19.93 7.70384 19.8842C7.60144 19.7966 7.49865 19.7072 7.39559 19.6159C7.34246 19.5689 7.29762 19.5158 7.26117 19.4587C7.20083 19.4286 7.14359 19.3895 7.0913 19.3415C6.99231 19.2507 6.89314 19.158 6.79387 19.0637C6.74268 19.015 6.69988 18.9607 6.66553 18.9027C6.6066 18.8705 6.55104 18.8296 6.50069 18.7801C6.40426 18.6852 6.30781 18.5886 6.21143 18.4904C6.16198 18.44 6.12109 18.3843 6.08877 18.3251C6.03102 18.2909 5.97694 18.2482 5.92836 18.1969C5.83551 18.099 5.74279 17.9995 5.65028 17.8984C5.60237 17.8461 5.56329 17.7887 5.53296 17.7281C5.47613 17.6919 5.42329 17.6471 5.37628 17.5939C5.28686 17.4928 5.1977 17.3902 5.10886 17.2861C5.06292 17.2323 5.02593 17.1738 4.99774 17.1124C4.94239 17.0742 4.8913 17.0277 4.8463 16.9731C4.75991 16.8683 4.67388 16.762 4.58829 16.6544C4.54437 16.5991 4.5095 16.5395 4.48348 16.4774C4.42967 16.4373 4.38039 16.3892 4.33744 16.3331C4.25484 16.2254 4.1727 16.1164 4.09109 16.006C4.04897 15.949 4.01612 15.8879 3.99226 15.8246C3.93966 15.7825 3.8919 15.7325 3.85079 15.6747C3.77215 15.5643 3.69407 15.4526 3.6166 15.3396C3.57637 15.2809 3.54561 15.2185 3.52399 15.1541C3.47269 15.11 3.42654 15.0581 3.38736 14.9987C3.31282 14.8856 3.23892 14.7714 3.16569 14.6559C3.12764 14.5958 3.09916 14.5324 3.07986 14.4674C3.03026 14.4215 2.98608 14.368 2.94911 14.3073C2.87847 14.1912 2.80854 14.074 2.73937 13.9556C2.70356 13.8943 2.67742 13.8299 2.66049 13.7643C2.61268 13.7167 2.57054 13.6616 2.53586 13.5997C2.4693 13.4808 2.40353 13.3607 2.33859 13.2395C2.30509 13.177 2.28135 13.1118 2.26682 13.0457C2.22087 12.9964 2.18085 12.9399 2.14851 12.8767C2.08623 12.7551 2.0248 12.6324 1.96425 12.5086C1.93313 12.4449 1.91183 12.379 1.89974 12.3125C1.85572 12.2615 1.81788 12.2036 1.78795 12.1393C1.73023 12.0155 1.67341 11.8906 1.61753 11.7645C1.58878 11.6997 1.56993 11.6329 1.56034 11.5659C1.51821 11.5133 1.48253 11.4539 1.45499 11.3885C1.40198 11.2627 1.34991 11.1357 1.29884 11.0078C1.2725 10.9418 1.25616 10.8743 1.24911 10.8069C1.20891 10.7526 1.17543 10.6918 1.15034 10.6253C1.10213 10.4976 1.05491 10.3689 1.00872 10.2392C0.984862 10.1722 0.971075 10.104 0.966571 10.0363C0.928408 9.98047 0.897204 9.91841 0.874614 9.85096C0.831278 9.72157 0.788971 9.5912 0.747728 9.45986C0.726403 9.39195 0.715196 9.32325 0.713256 9.2554C0.677198 9.19812 0.648335 9.13488 0.628293 9.06657C0.589887 8.93567 0.552543 8.80383 0.516292 8.67107C0.497536 8.60237 0.488926 8.53327 0.489547 8.46539C0.455661 8.40676 0.429191 8.34245 0.41173 8.27341C0.378287 8.14118 0.345933 8.00805 0.314698 7.87403C0.298536 7.80468 0.292524 7.73532 0.295686 7.66753C0.26403 7.60766 0.239993 7.5424 0.225131 7.47276C0.210763 7.40545 0.196679 7.33791 0.182881 7.27015C0.167819 7.19618 0.153711 7.12296 0.140549 7.05049C0.127215 6.97707 0.12501 6.90419 0.132726 6.83362C0.10342 6.7688 0.0828858 6.69861 0.0728352 6.62438C0.0522787 6.47256 0.0361299 6.3241 0.0243174 6.17893C0.0180116 6.10144 0.0236644 6.02574 0.0397196 5.95369C0.0162528 5.88333 0.00286499 5.80822 0.001319 5.73006C-0.00175701 5.57456 0.000553805 5.423 0.008181 5.27533C0.012316 5.19527 0.0287968 5.11882 0.0556644 5.04775C0.0422066 4.97237 0.040102 4.8936 0.050979 4.8136C0.0728632 4.65265 0.101739 4.49683 0.137495 4.34611C0.156985 4.26396 0.189232 4.18826 0.231609 4.12064C0.233014 4.04004 0.247475 3.95829 0.276328 3.87829C0.333878 3.71872 0.400028 3.5664 0.474381 3.42133C0.51441 3.34323 0.566199 3.27526 0.62643 3.21849C0.648714 3.13809 0.684837 3.06012 0.735391 2.98809C0.834261 2.84721 0.941407 2.71611 1.05577 2.59444C1.11586 2.53051 1.1845 2.47967 1.25817 2.44201C1.30162 2.37148 1.35756 2.30712 1.4256 2.2524C1.55581 2.14769 1.69153 2.05303 1.83141 1.96766C1.90368 1.92355 1.98044 1.89339 2.05861 1.87641C2.11627 1.82132 2.18377 1.77474 2.26002 1.73959C2.40454 1.67296 2.55191 1.61449 2.70097 1.56339C2.77748 1.53717 2.85529 1.5243 2.93191 1.52355C2.99659 1.48304 3.06862 1.452 3.14659 1.43276C3.29457 1.39626 3.44368 1.36589 3.59305 1.34101C3.67005 1.32819 3.74623 1.32785 3.81956 1.33855C3.88742 1.30939 3.96078 1.29007 4.03809 1.28249C4.18584 1.26801 4.33352 1.25824 4.48039 1.25264C4.55657 1.24974 4.63049 1.25857 4.70045 1.27753C4.7698 1.25713 4.8433 1.24671 4.9193 1.2479C5.0658 1.25019 5.21111 1.25623 5.35452 1.26554C5.4295 1.27041 5.50115 1.28639 5.568 1.31178C5.63811 1.29851 5.71132 1.29532 5.7859 1.30363C5.93143 1.31984 6.07443 1.33914 6.21409 1.36102C6.28832 1.37265 6.35824 1.39503 6.42255 1.42636C6.49366 1.41933 6.56698 1.42267 6.64067 1.43761C6.78693 1.46726 6.92856 1.49954 7.06449 1.53383C7.13774 1.55231 7.2057 1.58122 7.26718 1.6186C7.33934 1.61853 7.41274 1.62921 7.48534 1.65172C7.63819 1.6991 7.78227 1.74918 7.91507 1.801C7.99295 1.83139 8.06283 1.87363 8.12347 1.92488C8.20584 1.93748 8.28748 1.96444 8.36495 2.0068C8.45318 2.05504 8.54282 2.11035 8.62538 2.17348C8.69021 2.22304 8.75587 2.27754 8.82134 2.33486C8.88202 2.38798 8.93205 2.44888 8.97124 2.51481C9.03733 2.54873 9.09946 2.59332 9.15511 2.64862C9.25262 2.74552 9.35416 2.85024 9.4584 2.96076C9.50935 3.01479 9.55071 3.07451 9.58253 3.13777C9.64252 3.17415 9.69835 3.21981 9.74796 3.27464C9.84011 3.3765 9.93409 3.48208 10.0292 3.59038C10.0773 3.6452 10.116 3.70517 10.1454 3.76826C10.2034 3.80592 10.2571 3.85247 10.3046 3.90775C10.3945 4.01259 10.4851 4.11916 10.5756 4.22667C10.6223 4.28208 10.6596 4.34238 10.6876 4.40559C10.7445 4.44411 10.7971 4.49132 10.8433 4.54706C10.9322 4.65431 11.0207 4.76182 11.1083 4.86886C11.154 4.92478 11.1903 4.98542 11.2174 5.04882C11.2737 5.08801 11.3255 5.1358 11.3708 5.19198C11.4594 5.30166 11.5465 5.41007 11.6314 5.5164C11.6712 5.56625 11.7036 5.6197 11.7288 5.67539C11.7392 5.60726 11.7593 5.53945 11.7896 5.47382C11.85 5.34314 11.9133 5.2123 11.9796 5.0816C12.0139 5.01415 12.0569 4.95418 12.1065 4.90241C12.1218 4.83198 12.1476 4.76261 12.1844 4.69648C12.2547 4.57014 12.328 4.44415 12.4044 4.31878C12.4439 4.25387 12.4917 4.19722 12.5455 4.14933C12.5663 4.07999 12.5976 4.01256 12.6398 3.94929C12.7203 3.82846 12.8039 3.70842 12.8905 3.58944C12.9354 3.52782 12.988 3.47517 13.0458 3.43185C13.0725 3.36427 13.1094 3.2995 13.157 3.23986C13.2479 3.12581 13.3419 3.013 13.4391 2.90164C13.4893 2.84402 13.5464 2.7961 13.6081 2.75801C13.6407 2.69287 13.6835 2.63149 13.7363 2.57623C13.8374 2.47054 13.9416 2.36646 14.049 2.26422C14.1045 2.21138 14.166 2.16889 14.2311 2.13668C14.2697 2.07473 14.3181 2.01751 14.3761 1.96737C14.4868 1.87158 14.6006 1.77775 14.7175 1.68608C14.7779 1.63875 14.8432 1.60234 14.9112 1.57655C14.9556 1.51855 15.0093 1.46622 15.0719 1.4219C15.1913 1.33733 15.3137 1.25499 15.4391 1.17507C15.5037 1.1339 15.5722 1.10406 15.6424 1.08505C15.6921 1.03172 15.7506 0.984924 15.8171 0.946963C15.9439 0.874609 16.0735 0.804687 16.2059 0.737348C16.2741 0.702714 16.345 0.679711 16.4164 0.667597C16.4709 0.619419 16.5334 0.578567 16.6031 0.547241C16.6698 0.517222 16.7372 0.487846 16.8053 0.459129C16.8751 0.429704 16.9443 0.401702 17.0129 0.375121C17.0836 0.347746 17.1559 0.332051 17.2277 0.327098C17.2875 0.285759 17.3544 0.252651 17.4272 0.229858C17.5741 0.183904 17.7186 0.144776 17.8607 0.112531C17.9388 0.0948316 18.0167 0.0902838 18.0922 0.097434C18.1615 0.0643854 18.2372 0.0417307 18.3174 0.0316824C18.4804 0.0112658 18.6403 0.000639623 18.7971 6.11555e-06C18.8833 -0.000342193 18.9661 0.0141971 19.0431 0.0412293C19.124 0.0244483 19.209 0.0211323 19.2954 0.0334035C19.4685 0.057991 19.636 0.0960873 19.7975 0.147477C19.884 0.175003 19.962 0.217086 20.0296 0.27021C20.1148 0.281102 20.1996 0.307269 20.2802 0.3499C20.4358 0.432266 20.5818 0.527534 20.7183 0.634005C20.7886 0.6889 20.8465 0.754067 20.8914 0.825798C20.9656 0.863929 21.0346 0.915436 21.0949 0.980204C21.2073 1.10101 21.3106 1.22971 21.4057 1.3646C21.4538 1.43279 21.4889 1.50632 21.5115 1.58223C21.5687 1.63526 21.6186 1.69836 21.6583 1.77072C21.7322 1.90547 21.7999 2.04483 21.862 2.18777C21.8934 2.26001 21.9125 2.33454 21.9203 2.40901C21.9644 2.46853 22.0003 2.53576 22.0259 2.60961C22.0739 2.74799 22.1177 2.88932 22.1575 3.03297C22.1777 3.10596 22.1865 3.17945 22.1848 3.25148C22.2197 3.31396 22.2462 3.38259 22.2624 3.4562C22.293 3.59515 22.3205 3.73608 22.3452 3.87853C22.3577 3.95135 22.3594 4.02354 22.3514 4.0934C22.3797 4.15742 22.3995 4.22658 22.4091 4.29962C22.4275 4.43837 22.4433 4.5784 22.4569 4.71935C22.4639 4.79179 22.4604 4.86281 22.4477 4.93088C22.4711 4.99586 22.4859 5.06523 22.4906 5.1377C22.4996 5.27607 22.5066 5.41516 22.5117 5.55465C22.5143 5.62663 22.5068 5.69662 22.4903 5.76318C22.5098 5.8288 22.5207 5.89825 22.5214 5.97019C22.5229 6.1081 22.5227 6.24623 22.5209 6.38429C22.52 6.4558 22.5091 6.52482 22.4897 6.59005C22.5059 6.65611 22.5134 6.72553 22.5109 6.79694C22.51 6.82219 22.5091 6.84744 22.5081 6.87267C22.6069 6.86275 22.7051 6.85643 22.8026 6.85339C22.8841 6.85085 22.9622 6.86544 23.0335 6.89393C23.1056 6.86845 23.184 6.85706 23.265 6.86279C23.42 6.87375 23.5721 6.8922 23.7201 6.91682C23.7992 6.92997 23.872 6.95872 23.9357 6.99945C24.0101 6.98814 24.088 6.99139 24.1656 7.01147C24.316 7.05043 24.4612 7.09519 24.6001 7.14428C24.6756 7.171 24.7422 7.21192 24.798 7.26304C24.8735 7.26489 24.9499 7.28177 25.023 7.31526C25.0943 7.34791 25.1633 7.38161 25.2298 7.41612L25.2473 7.42517L25.2641 7.43539C25.3411 7.48226 25.4172 7.53688 25.4919 7.598C25.5609 7.65459 25.6137 7.72392 25.6496 7.79992C25.7231 7.83358 25.7908 7.88337 25.8472 7.94889C25.9426 8.05978 26.0375 8.18418 26.1306 8.32218C26.1752 8.38839 26.2046 8.46055 26.2194 8.53442C26.2775 8.58083 26.3277 8.63932 26.3659 8.70874C26.434 8.83255 26.5006 8.96483 26.5651 9.10577C26.5971 9.1759 26.6143 9.24913 26.6178 9.32182C26.6668 9.37484 26.7067 9.43801 26.7342 9.50977C26.784 9.64008 26.832 9.77656 26.8777 9.91935C26.9008 9.99143 26.9093 10.0647 26.9048 10.136C26.9468 10.1932 26.9791 10.2592 26.9986 10.3322C27.0342 10.4656 27.0678 10.6038 27.0993 10.7469C27.1154 10.8199 27.1171 10.8927 27.1065 10.9624C27.1429 11.0225 27.169 11.0902 27.1821 11.1637C27.2063 11.2993 27.2285 11.4388 27.2487 11.5824C27.259 11.6555 27.2554 11.7274 27.2399 11.7953C27.2714 11.8572 27.2923 11.9259 27.3001 11.9992C27.3146 12.1351 27.3273 12.2743 27.338 12.4168C27.3436 12.4901 27.3354 12.5613 27.3158 12.6278C27.3433 12.6914 27.36 12.761 27.3634 12.8344C27.3697 12.9706 27.3744 13.1096 27.3772 13.2515C27.3786 13.3247 27.3667 13.3949 27.3436 13.46C27.3676 13.5246 27.3805 13.5946 27.3802 13.6677C27.3799 13.7232 27.3793 13.7791 27.3785 13.8355C27.422 13.7924 27.466 13.7492 27.5107 13.7062C27.5636 13.655 27.6237 13.6161 27.6875 13.5892C27.7189 13.5269 27.762 13.4694 27.8166 13.4199C27.9194 13.3266 28.0247 13.234 28.1325 13.1425C28.1889 13.0946 28.2517 13.0595 28.3175 13.0367C28.353 12.9763 28.4001 12.9214 28.4582 12.8755C28.5683 12.7884 28.6805 12.7029 28.7947 12.6194C28.8549 12.5754 28.9207 12.5448 28.9886 12.527C29.029 12.4689 29.0807 12.4174 29.1428 12.3758C29.2613 12.2966 29.3816 12.2199 29.5037 12.1463C29.5684 12.1072 29.6377 12.0824 29.7079 12.0709C29.7542 12.0161 29.8113 11.9691 29.8782 11.9334C30.0064 11.8651 30.1362 11.8004 30.2676 11.7402C30.3379 11.708 30.4111 11.6912 30.4837 11.6882C30.5373 11.6383 30.6013 11.5978 30.6739 11.5704C30.8133 11.5179 30.9543 11.4708 31.0967 11.4298C31.1732 11.4078 31.2504 11.4024 31.3247 11.4115C31.3874 11.3695 31.4593 11.3393 31.5379 11.3245C31.6889 11.296 31.8413 11.2751 31.9947 11.263C32.0767 11.2565 32.1562 11.2677 32.2293 11.2932C32.3018 11.2648 32.3812 11.2506 32.4639 11.2542C32.6216 11.2611 32.7796 11.2781 32.9372 11.3064C33.0203 11.3213 33.096 11.3534 33.1614 11.3983C33.2403 11.3898 33.3221 11.3976 33.4024 11.4241C33.5527 11.4736 33.7012 11.5342 33.8474 11.6065C33.9225 11.6436 33.9861 11.6949 34.0365 11.7557C34.1136 11.7691 34.1893 11.7985 34.2586 11.8451C34.3237 11.8887 34.3881 11.9348 34.4517 11.9835C34.5106 12.0286 34.5679 12.0748 34.6236 12.1221C34.6822 12.1719 34.7286 12.2311 34.7624 12.2955C34.8285 12.3256 34.8901 12.3689 34.9432 12.4251C35.0464 12.5344 35.1418 12.648 35.2295 12.7656C35.2764 12.8285 35.3088 12.8977 35.3273 12.9694C35.3855 13.0145 35.4362 13.0717 35.4753 13.1397C35.5502 13.2702 35.6166 13.4041 35.6748 13.5408C35.7054 13.6128 35.7206 13.6876 35.7218 13.7614C35.7676 13.8188 35.8033 13.8859 35.8254 13.9608C35.8673 14.1023 35.9012 14.2459 35.9276 14.3909C35.9414 14.4664 35.9401 14.5412 35.9259 14.6121C35.9577 14.6766 35.9781 14.7482 35.9843 14.8244C35.996 14.9674 36.001 15.1115 35.9998 15.256C35.9992 15.331 35.9846 15.4025 35.9586 15.4681C35.978 15.5357 35.9854 15.6081 35.9788 15.6824C35.9663 15.8219 35.9485 15.9616 35.9256 16.1014C35.9138 16.1738 35.8892 16.2408 35.8546 16.3007C35.8637 16.3691 35.8608 16.4403 35.8443 16.5116C35.8132 16.6454 35.7777 16.7791 35.7381 16.9124C35.7176 16.9816 35.6855 17.0441 35.6446 17.0983C35.6453 17.1664 35.6342 17.2357 35.6099 17.3035C35.5642 17.4312 35.5148 17.5584 35.462 17.6849C35.4345 17.7507 35.3965 17.8088 35.3508 17.8581C35.3446 17.9251 35.3268 17.9923 35.2962 18.0566C35.2385 18.1781 35.1777 18.2989 35.1141 18.4187C35.0808 18.4811 35.038 18.5351 34.9883 18.5795C34.9762 18.6454 34.9526 18.7102 34.9167 18.7711C34.8488 18.8865 34.7783 19.0008 34.7052 19.114C34.667 19.1731 34.62 19.223 34.5671 19.2629C34.5496 19.3273 34.5209 19.3897 34.4803 19.4472C34.4034 19.5564 34.3241 19.6642 34.2426 19.7706C34.1999 19.8264 34.1492 19.8722 34.0934 19.9077C34.071 19.9703 34.0374 20.0301 33.9926 20.0841C33.9073 20.1869 33.8199 20.288 33.7306 20.3874C33.6837 20.4396 33.6296 20.4813 33.5712 20.5122C33.5439 20.5729 33.5058 20.6298 33.4568 20.6801C33.3635 20.7761 33.2683 20.8701 33.1713 20.9619C33.1203 21.0103 33.0629 21.0475 33.002 21.0737C32.9699 21.1321 32.9272 21.1859 32.8742 21.2321C32.7728 21.3205 32.6698 21.4065 32.5653 21.49C32.5101 21.5341 32.4495 21.5664 32.3863 21.5872C32.3491 21.6429 32.3017 21.693 32.2446 21.7346C32.1351 21.8142 32.0242 21.891 31.9119 21.9648C31.8526 22.0039 31.7887 22.0305 31.7234 22.0454C31.6808 22.0976 31.6285 22.1433 31.5672 22.1793C31.4494 22.2485 31.3303 22.3143 31.2101 22.3764C31.1463 22.4094 31.0794 22.4293 31.0122 22.437C30.9638 22.4849 30.9062 22.5249 30.8405 22.5542C30.7779 22.5821 30.715 22.6089 30.6518 22.6348C30.5921 22.6592 30.5321 22.6838 30.4719 22.7084C30.4086 22.7344 30.3434 22.7482 30.2789 22.751C30.2307 22.7945 30.1745 22.8306 30.1112 22.8566C29.9917 22.9058 29.8716 22.9554 29.751 23.0052C29.6878 23.0313 29.6226 23.0453 29.5581 23.0483C29.5101 23.0919 29.454 23.1281 29.3908 23.1543C29.271 23.204 29.1509 23.2539 29.0307 23.3039C28.9675 23.3302 28.9024 23.3443 28.8379 23.3475C28.7899 23.3912 28.7339 23.4275 28.6707 23.4539C28.5507 23.504 28.4307 23.5542 28.3109 23.6043C28.2477 23.6307 28.1826 23.645 28.1181 23.6483C28.0702 23.6922 28.0142 23.7286 27.9511 23.7551C27.8308 23.8056 27.7109 23.856 27.5915 23.9062C27.5284 23.9327 27.4634 23.9472 27.3988 23.9506C27.3511 23.9945 27.2952 24.031 27.2321 24.0576C27.1115 24.1084 26.9916 24.1591 26.8726 24.2094C26.8095 24.236 26.7444 24.2506 26.6798 24.2541C26.6321 24.2981 26.5762 24.3348 26.5131 24.3615C26.3923 24.4127 26.2725 24.4635 26.1541 24.5137C26.0911 24.5405 26.0261 24.5551 25.9615 24.5587C25.9139 24.6028 25.858 24.6395 25.795 24.6663C25.6735 24.718 25.5537 24.7691 25.4358 24.8193C25.3729 24.8461 25.308 24.8609 25.2436 24.8646C25.1961 24.9086 25.1404 24.9453 25.0776 24.9722C24.9552 25.0245 24.8352 25.0758 24.718 25.1259C24.6552 25.1528 24.5904 25.1676 24.526 25.1715C24.4785 25.2156 24.4229 25.2524 24.3602 25.2793C24.2366 25.3323 24.1167 25.3838 24.001 25.4335C23.9381 25.4606 23.8731 25.4755 23.8085 25.4794C23.761 25.5237 23.7053 25.5608 23.6424 25.5879C23.5789 25.6152 23.5171 25.6419 23.4569 25.6679C23.3977 25.6934 23.3401 25.7183 23.2842 25.7425C23.2215 25.7696 23.1566 25.7846 23.0922 25.7887C23.0449 25.833 22.9894 25.8701 22.9266 25.8973C22.8915 25.9125 22.8574 25.9273 22.8244 25.9416C22.7987 25.9528 22.7736 25.9637 22.7492 25.9743L22.2719 26.1818L22.016 25.7253C21.9849 25.6697 21.9532 25.6126 21.9211 25.554C21.8877 25.493 21.8662 25.4285 21.8559 25.3633C21.8075 25.3191 21.7658 25.2658 21.7334 25.2042C21.6741 25.0913 21.6135 24.974 21.552 24.8527C21.5208 24.7911 21.5015 24.7266 21.4931 24.6617C21.4465 24.6163 21.4067 24.5622 21.3764 24.5002C21.32 24.3852 21.263 24.2671 21.2056 24.1461C21.176 24.0839 21.1584 24.0191 21.1517 23.9542C21.1063 23.9078 21.068 23.8528 21.0392 23.7903C20.9855 23.6735 20.9315 23.5544 20.8773 23.4331C20.8493 23.3704 20.8332 23.3053 20.828 23.2405C20.7838 23.193 20.7468 23.1373 20.7195 23.0743C20.6682 22.9559 20.6169 22.8356 20.5657 22.7136C20.539 22.6502 20.5243 22.5847 20.5206 22.5197C20.4774 22.4713 20.4416 22.4147 20.4157 22.351C20.3668 22.2309 20.3181 22.1094 20.2696 21.9865C20.2443 21.9224 20.2311 21.8565 20.2287 21.7913C20.1866 21.7418 20.152 21.6844 20.1274 21.62C20.081 21.4985 20.0349 21.3757 19.9892 21.2518C19.9655 21.1873 19.9537 21.1213 19.9528 21.0562C19.9119 21.0059 19.8787 20.9478 19.8557 20.883C19.812 20.7604 19.7688 20.6367 19.7261 20.5121C19.7038 20.4469 19.6935 20.3805 19.6942 20.3152C19.6543 20.2638 19.6224 20.2048 19.6008 20.1393C19.56 20.0151 19.5196 19.8902 19.48 19.7645C19.4592 19.6987 19.4506 19.6319 19.4528 19.5667C19.4142 19.5142 19.3838 19.4543 19.3638 19.3882C19.326 19.2629 19.2889 19.1369 19.2526 19.0104C19.2335 18.944 19.2266 18.8769 19.2306 18.8117C19.1933 18.7581 19.1644 18.6973 19.1463 18.6306C19.1117 18.5038 19.078 18.3766 19.0452 18.2489C19.0279 18.1819 19.0229 18.1145 19.0288 18.0493C18.993 17.9946 18.9659 17.9328 18.9496 17.8655C18.9187 17.7374 18.8888 17.6089 18.8598 17.4802C18.8446 17.4125 18.8417 17.3449 18.8497 17.2797C18.8155 17.2238 18.7902 17.161 18.7761 17.093C18.7493 16.9635 18.7235 16.8338 18.6989 16.704C18.686 16.6357 18.6854 16.5679 18.6956 16.5029C18.6633 16.4457 18.6402 16.3819 18.6285 16.3133C18.6221 16.2753 18.6157 16.2374 18.6094 16.1994ZM18.803 1.49364C18.8531 1.49343 18.902 1.48822 18.9492 1.47847C18.9938 1.49408 19.0406 1.50558 19.0891 1.51247C19.1835 1.52588 19.2711 1.54609 19.3526 1.57202C19.3956 1.58569 19.4388 1.5952 19.482 1.60077C19.5162 1.62757 19.5532 1.6517 19.5929 1.6727C19.6696 1.71331 19.743 1.76098 19.8133 1.81584C19.8505 1.84482 19.8895 1.86968 19.9298 1.89048C19.9545 1.92983 19.9833 1.96741 20.016 2.00262C20.0794 2.07074 20.1407 2.14657 20.1998 2.23039C20.2304 2.27384 20.2648 2.313 20.3022 2.34772C20.3171 2.39765 20.3375 2.44676 20.3636 2.49425C20.4137 2.58561 20.4614 2.68333 20.5066 2.78733C20.5297 2.84072 20.5584 2.89 20.5915 2.93479C20.5974 2.99095 20.6098 3.0473 20.6291 3.10291C20.6659 3.20926 20.7003 3.32017 20.7323 3.4354C20.7487 3.49447 20.7716 3.54989 20.8002 3.60107C20.7989 3.66012 20.8045 3.72029 20.8178 3.78053C20.8432 3.8957 20.8663 4.01399 20.8873 4.13514C20.898 4.1974 20.9161 4.2565 20.9405 4.3117C20.9336 4.37195 20.9339 4.43404 20.9422 4.49691C20.9581 4.61732 20.972 4.73981 20.984 4.86411C20.9902 4.92819 21.0042 4.98958 21.025 5.04742C21.0137 5.10802 21.0097 5.17104 21.0138 5.23542C21.0219 5.35903 21.0282 5.48391 21.0328 5.60982C21.0352 5.67491 21.0457 5.73775 21.0634 5.79737C21.0485 5.85785 21.0409 5.92122 21.0416 5.98645C21.043 6.11197 21.0428 6.23811 21.0411 6.36461C21.0403 6.43019 21.0478 6.49391 21.0628 6.55472C21.0449 6.61477 21.0342 6.6781 21.0319 6.7437C21.0274 6.87035 21.0216 6.997 21.0145 7.12341C21.0107 7.18922 21.0156 7.25352 21.028 7.31521C21.0263 7.32019 21.0246 7.32519 21.023 7.33022C21.0123 7.33542 21.0017 7.34098 20.9913 7.34691C20.8552 7.42374 20.7215 7.51048 20.5908 7.60776C20.5236 7.65782 20.4702 7.71976 20.4314 7.7886C20.3576 7.81485 20.288 7.8567 20.2274 7.91429C20.1167 8.01948 20.0094 8.13316 19.9059 8.25565C19.8531 8.31821 19.8156 8.38877 19.7931 8.46264C19.7284 8.50338 19.6707 8.55776 19.6245 8.62494C19.5401 8.74752 19.4591 8.87696 19.3817 9.01347C19.3425 9.08251 19.3189 9.15622 19.3096 9.23051C19.2548 9.28046 19.2086 9.3419 19.1749 9.41343C19.1132 9.54436 19.0544 9.68082 18.9987 9.82293C18.9703 9.89534 18.9572 9.97005 18.9579 10.0434C18.911 10.0991 18.8738 10.1647 18.8497 10.2384C18.8055 10.3735 18.7638 10.5132 18.7246 10.6576C18.7045 10.7313 18.6994 10.8056 18.7074 10.8772C18.6671 10.9365 18.6371 11.0043 18.6204 11.0787C18.6046 11.1492 18.5893 11.2207 18.5746 11.2932C18.5611 11.3602 18.5482 11.4275 18.5361 11.4951C18.5234 11.5661 18.5239 11.6364 18.536 11.7035C18.5039 11.7634 18.4818 11.83 18.4721 11.9014C18.4537 12.0362 18.4379 12.1719 18.4247 12.3084C18.4178 12.3796 18.4239 12.4491 18.441 12.5144C18.4139 12.5762 18.3971 12.6437 18.3928 12.715C18.3846 12.8495 18.3787 12.9846 18.375 13.1203C18.3731 13.1912 18.3837 13.2595 18.4049 13.3231C18.3823 13.386 18.37 13.454 18.3703 13.5248C18.3707 13.6588 18.3732 13.7934 18.3776 13.9283C18.3776 13.9294 18.3776 13.9306 18.3777 13.9317C18.3638 13.9603 18.3519 13.9895 18.3419 14.0191C18.2963 14.0602 18.255 14.1077 18.2194 14.1614C18.1511 14.2644 18.0819 14.3677 18.0116 14.4714C17.9754 14.5248 17.947 14.5813 17.9261 14.6395C17.8796 14.6797 17.8372 14.7265 17.8005 14.7796C17.7299 14.8814 17.6584 14.9835 17.5861 15.0856C17.5489 15.1381 17.5195 15.1938 17.4975 15.2514C17.4502 15.2905 17.4071 15.3362 17.3694 15.3883C17.2968 15.4885 17.2235 15.5887 17.1493 15.6889C17.111 15.7407 17.0803 15.7958 17.057 15.8529C17.0089 15.891 16.9647 15.9359 16.9258 15.9872C16.8511 16.0858 16.7756 16.1843 16.6993 16.2825C16.6599 16.3333 16.6281 16.3875 16.6036 16.444C16.5548 16.4809 16.5097 16.5245 16.4698 16.5748C16.3928 16.6716 16.3151 16.7681 16.2368 16.8642C16.1962 16.9139 16.1631 16.9674 16.1373 17.0232C16.0876 17.0588 16.0415 17.1013 16.0004 17.1505C15.9211 17.2453 15.8413 17.3395 15.7608 17.4333C15.7191 17.4818 15.6847 17.5343 15.6575 17.5892C15.607 17.6235 15.5599 17.6646 15.5176 17.7126C15.436 17.8051 15.3537 17.897 15.2709 17.9882C15.228 18.0355 15.1922 18.0868 15.1636 18.1408C15.1123 18.1735 15.0642 18.2132 15.0206 18.2598C14.9365 18.3497 14.8518 18.4389 14.7666 18.5273C14.7224 18.5731 14.6852 18.6232 14.655 18.6761C14.6028 18.7072 14.5537 18.7452 14.5088 18.7903C14.4221 18.8772 14.335 18.9633 14.2473 19.0483C14.2018 19.0925 14.1631 19.1412 14.1312 19.1929C14.0782 19.2221 14.0279 19.2583 13.9816 19.3016C13.8922 19.3854 13.8023 19.468 13.712 19.5495C13.6651 19.5918 13.6248 19.6387 13.5912 19.689C13.5374 19.716 13.486 19.7501 13.4384 19.7914C13.3463 19.8713 13.2537 19.9499 13.1607 20.0272C13.1123 20.0674 13.0703 20.1125 13.0348 20.1612C12.9801 20.1858 12.9275 20.2176 12.8783 20.2566C12.7833 20.3322 12.6878 20.4063 12.5919 20.4788C12.5422 20.5165 12.4985 20.5593 12.461 20.6059C12.4056 20.6278 12.352 20.6569 12.3014 20.6932C12.2034 20.7637 12.105 20.8325 12.0063 20.8996C11.9647 20.9279 11.9268 20.9598 11.8928 20.9945C11.8529 20.9606 11.8089 20.9305 11.761 20.905C11.6556 20.8489 11.5466 20.7887 11.4342 20.7245C11.3779 20.6923 11.3192 20.6684 11.2594 20.6524C11.2161 20.6077 11.1665 20.5677 11.1109 20.534C11.0066 20.4707 10.9 20.4043 10.7914 20.3348C10.7363 20.2995 10.6785 20.2726 10.6192 20.2535C10.5778 20.2065 10.5298 20.1641 10.4755 20.1276C10.3729 20.0587 10.2688 19.9872 10.1633 19.9131C10.1095 19.8753 10.0525 19.8457 9.99375 19.8241C9.95418 19.7751 9.90776 19.7304 9.85471 19.6915C9.75398 19.6177 9.65223 19.5416 9.5496 19.4633C9.49702 19.4232 9.44085 19.3912 9.38258 19.3672C9.34475 19.3164 9.29983 19.2697 9.24799 19.2285C9.14991 19.1507 9.05118 19.0709 8.9519 18.9891C8.90104 18.9472 8.84632 18.9132 8.78922 18.8871C8.75334 18.8352 8.71027 18.7871 8.66016 18.7443C8.56442 18.6624 8.46828 18.5788 8.37185 18.4934C8.32216 18.4494 8.26828 18.4133 8.21172 18.385C8.17754 18.3314 8.13596 18.2815 8.08705 18.2366C7.99437 18.1515 7.90151 18.0648 7.80854 17.9764C7.76062 17.9308 7.70826 17.893 7.65298 17.8628C7.62074 17.8083 7.58105 17.7571 7.53392 17.7107C7.44357 17.6218 7.35321 17.5314 7.26291 17.4393C7.21661 17.3921 7.16561 17.3525 7.11141 17.3204C7.08108 17.2649 7.04318 17.2123 6.99769 17.1643C6.91069 17.0726 6.82383 16.9794 6.73715 16.8847C6.6923 16.8357 6.64245 16.7942 6.58913 16.7601C6.56066 16.7033 6.52447 16.6492 6.48046 16.5994C6.39669 16.5047 6.31318 16.4086 6.22997 16.3111C6.18698 16.2608 6.13878 16.2176 6.08688 16.1818C6.06042 16.1242 6.02621 16.0691 5.9841 16.018C5.9032 15.9198 5.82266 15.8204 5.74254 15.7196C5.70146 15.6679 5.65497 15.6232 5.60453 15.5857C5.58013 15.5274 5.54794 15.4713 5.50777 15.4189C5.43047 15.3181 5.35362 15.2161 5.27728 15.1128C5.23791 15.0596 5.19285 15.0131 5.14358 14.9737C5.12122 14.9144 5.09096 14.857 5.05253 14.8031C4.979 14.6998 4.90601 14.5953 4.83359 14.4897C4.79602 14.4349 4.75248 14.3867 4.70446 14.3455C4.68422 14.2852 4.65595 14.2266 4.61936 14.1711C4.54971 14.0655 4.48067 13.9588 4.41228 13.8509C4.37677 13.7949 4.33508 13.7452 4.2887 13.7023C4.27063 13.6415 4.24453 13.582 4.21004 13.5254C4.14409 13.417 4.07881 13.3076 4.01426 13.1971C3.98087 13.1399 3.94111 13.0889 3.89643 13.0443C3.88059 12.983 3.8567 12.9228 3.82437 12.865C3.76228 12.7541 3.70093 12.6421 3.64036 12.529C3.60915 12.4708 3.57138 12.4184 3.52847 12.3723C3.51489 12.3106 3.49326 12.2496 3.46313 12.1908C3.40507 12.0774 3.34781 11.9631 3.29138 11.8476C3.2624 11.7884 3.22667 11.7347 3.18559 11.6871C3.1743 11.625 3.15497 11.5634 3.1271 11.5036C3.07332 11.3882 3.02038 11.2718 2.96833 11.1544C2.94157 11.094 2.90785 11.039 2.86855 10.9899C2.85959 10.9274 2.84258 10.865 2.81695 10.8042C2.76758 10.687 2.7191 10.5688 2.67154 10.4496C2.64704 10.3883 2.61536 10.3319 2.57789 10.2813C2.57129 10.2185 2.55663 10.1554 2.53328 10.0936C2.4884 9.97466 2.44444 9.85483 2.40144 9.73406C2.37924 9.67172 2.34968 9.6142 2.3141 9.56213C2.30989 9.49902 2.29761 9.43542 2.2766 9.37267C2.23626 9.25222 2.19687 9.13086 2.15848 9.0086C2.13864 8.94542 2.11125 8.88677 2.07763 8.83335C2.07582 8.77008 2.06594 8.70602 2.0473 8.64247C2.01154 8.52061 1.97677 8.39787 1.94302 8.27426C1.92557 8.21034 1.9004 8.15066 1.8688 8.09596C1.86937 8.03265 1.86191 7.96823 1.84566 7.90398C1.81452 7.78085 1.78439 7.65687 1.75529 7.53203C1.74025 7.46748 1.71733 7.40687 1.6878 7.351C1.69074 7.28775 1.68569 7.22307 1.67186 7.15824C1.65847 7.09552 1.64535 7.03259 1.63249 6.96946C1.61951 6.90572 1.60743 6.84298 1.59621 6.78119C1.58494 6.71918 1.56639 6.66036 1.54161 6.60549C1.54811 6.5458 1.54754 6.48434 1.53912 6.42215C1.522 6.29576 1.50881 6.17398 1.49926 6.05667C1.49424 5.9949 1.4819 5.9355 1.46317 5.87927C1.47596 5.82177 1.48215 5.76181 1.48093 5.70025C1.47854 5.57901 1.48039 5.46337 1.48608 5.35309C1.48911 5.29443 1.48535 5.23701 1.4755 5.18159C1.49516 5.12947 1.50931 5.07429 1.51715 5.01667C1.53268 4.90243 1.55275 4.79498 1.57672 4.69392C1.58949 4.64009 1.59614 4.58624 1.59711 4.53309C1.6249 4.48866 1.64844 4.44057 1.66698 4.38918C1.70334 4.28835 1.7442 4.1947 1.78885 4.10757C1.81252 4.06139 1.83095 4.01387 1.84435 3.9657C1.88032 3.93172 1.91345 3.8936 1.94304 3.85144C2.00061 3.76941 2.06286 3.69323 2.12943 3.62242C2.16456 3.58504 2.19512 3.54495 2.22111 3.50286C2.26518 3.48027 2.30766 3.45286 2.34783 3.42056C2.42593 3.35775 2.50912 3.29954 2.59721 3.24578C2.6434 3.21759 2.68544 3.18511 2.72314 3.14916C2.7744 3.13797 2.82526 3.12109 2.87492 3.09819C2.97125 3.05378 3.07202 3.01364 3.1769 2.97769C3.23142 2.959 3.28236 2.93453 3.3293 2.90518C3.38501 2.9046 3.44153 2.89761 3.49799 2.88369C3.60717 2.85675 3.71934 2.83382 3.83401 2.81472C3.89361 2.80479 3.95036 2.78794 4.00359 2.7651C4.06118 2.77347 4.12067 2.77506 4.18116 2.76914C4.29826 2.75766 4.41679 2.74977 4.53618 2.74522C4.59838 2.74286 4.6585 2.7328 4.71567 2.71601C4.77338 2.73162 4.83392 2.74038 4.89638 2.74136C5.01777 2.74326 5.13903 2.74828 5.25952 2.7561C5.3226 2.7602 5.38434 2.75619 5.44375 2.74496C5.50041 2.76647 5.56063 2.78125 5.62356 2.78826C5.7469 2.802 5.86834 2.81838 5.98709 2.83699C6.05004 2.84685 6.11237 2.84839 6.17297 2.84242C6.22778 2.8691 6.28677 2.88933 6.34918 2.90199C6.47307 2.92711 6.59224 2.95429 6.70563 2.9829C6.76598 2.99812 6.82645 3.00539 6.88596 3.00536C6.9366 3.03612 6.99174 3.06121 7.0508 3.07952C7.17398 3.11771 7.2847 3.15641 7.38136 3.19413C7.43275 3.21418 7.485 3.22806 7.5373 3.23611C7.57463 3.2676 7.61562 3.29583 7.66006 3.32012C7.7038 3.34404 7.72561 3.35937 7.73172 3.36405C7.76474 3.38929 7.80464 3.42203 7.8516 3.46314C7.89826 3.50399 7.94854 3.5379 8.00121 3.56497C8.0327 3.61787 8.07124 3.66767 8.11683 3.71297C8.20081 3.79643 8.29099 3.88934 8.38646 3.99056C8.43347 4.04041 8.48568 4.08227 8.54142 4.11609C8.57101 4.1749 8.60888 4.2307 8.65508 4.28177C8.74173 4.37755 8.83079 4.4776 8.92162 4.58104C8.96772 4.63354 9.01951 4.67794 9.07523 4.71412C9.10346 4.77473 9.1403 4.83249 9.18588 4.88561C9.27263 4.98669 9.36019 5.08977 9.44806 5.19408C9.4934 5.24792 9.54468 5.29365 9.60009 5.33113C9.62736 5.39263 9.6634 5.4514 9.70836 5.50563C9.795 5.61013 9.88136 5.71505 9.96691 5.81966C10.0116 5.87434 10.0624 5.92094 10.1175 5.95931C10.144 6.02136 10.1794 6.08078 10.2238 6.13575C10.3105 6.24314 10.3958 6.34936 10.479 6.45358C10.5231 6.50882 10.5734 6.55606 10.6281 6.5951C10.6539 6.65747 10.6886 6.71732 10.7324 6.77281C10.8199 6.88361 10.904 6.9908 10.9839 7.09323C11.0275 7.14901 11.0773 7.19685 11.1316 7.23652C11.1566 7.2992 11.1906 7.35947 11.2337 7.41549C11.2767 7.47132 11.3177 7.5248 11.3566 7.57567L12.2136 8.69809L12.6466 7.3501C12.6659 7.28978 12.6859 7.22922 12.7066 7.16844C12.7279 7.1057 12.7405 7.04207 12.745 6.97889C12.7816 6.92751 12.8124 6.87054 12.8358 6.80861C12.8805 6.69075 12.9276 6.57243 12.9772 6.45393C13.0028 6.39299 13.0197 6.33055 13.0285 6.26799C13.0686 6.21947 13.1032 6.16499 13.1309 6.10506C13.1837 5.99075 13.2389 5.87654 13.2967 5.76267C13.3265 5.70406 13.3478 5.64334 13.3612 5.5819C13.4045 5.53673 13.4428 5.48526 13.4747 5.42789C13.5357 5.3183 13.5991 5.20928 13.6651 5.10103C13.6991 5.04516 13.725 4.98655 13.743 4.9266C13.7895 4.8852 13.8316 4.83717 13.8678 4.78279C13.937 4.67897 14.0086 4.57609 14.0828 4.47434C14.1211 4.4218 14.1515 4.36589 14.1744 4.30801C14.2239 4.27089 14.2696 4.22687 14.3101 4.1761C14.3874 4.07903 14.4673 3.98322 14.5496 3.88886C14.5921 3.84018 14.6272 3.78748 14.6549 3.73217C14.7073 3.69981 14.7564 3.66029 14.801 3.61366C14.8864 3.52445 14.9742 3.43677 15.0645 3.35077C15.1111 3.30643 15.1507 3.25744 15.1833 3.20519C15.2382 3.178 15.2906 3.14344 15.3392 3.1014C15.4321 3.02105 15.5275 2.94242 15.6254 2.86565C15.6758 2.8261 15.7198 2.78127 15.7572 2.73253C15.8143 2.71082 15.8697 2.68157 15.922 2.64455C16.0219 2.5738 16.1242 2.50492 16.2292 2.43805C16.2832 2.40364 16.3313 2.36335 16.3731 2.31852C16.4321 2.30251 16.49 2.27883 16.5456 2.2471C16.6518 2.18649 16.7604 2.12786 16.8716 2.07134C16.9288 2.04228 16.9806 2.00677 17.0266 1.96611C17.087 1.95586 17.147 1.93783 17.2055 1.91153C17.2617 1.88625 17.3185 1.86149 17.376 1.83727C17.4326 1.81336 17.4883 1.79084 17.543 1.76967C17.5983 1.74824 17.6497 1.72083 17.6965 1.68845C17.7527 1.68455 17.8093 1.67407 17.8654 1.65651C17.977 1.62159 18.0836 1.59288 18.1852 1.56983C18.2395 1.55752 18.291 1.5395 18.3393 1.51652C18.3916 1.52144 18.4453 1.52076 18.4997 1.51395C18.6075 1.50044 18.7085 1.49402 18.803 1.49364ZM22.426 8.05665C22.45 8.05628 22.4744 8.05439 22.4988 8.0509C22.6116 8.03481 22.7249 8.02531 22.8383 8.02177C22.899 8.01988 22.9571 8.00865 23.0115 7.98948C23.0653 8.01095 23.1233 8.02457 23.1841 8.02887C23.3014 8.03716 23.4176 8.05122 23.5319 8.07021C23.5931 8.0804 23.6537 8.08048 23.712 8.07167C23.7619 8.1035 23.8175 8.12812 23.8777 8.14373C23.9952 8.17415 24.1087 8.20914 24.2171 8.24747C24.2757 8.26819 24.3354 8.27884 24.3943 8.28032C24.4378 8.32014 24.488 8.3539 24.5443 8.3797C24.5916 8.40135 24.6371 8.42339 24.6807 8.44564C24.7036 8.46048 24.7309 8.48013 24.762 8.50561C24.8012 8.53773 24.8433 8.56383 24.8872 8.58401C24.9092 8.63042 24.9377 8.67465 24.9727 8.71537C25.0365 8.78945 25.1039 8.87724 25.1731 8.97992C25.207 9.03014 25.2472 9.07336 25.292 9.10921C25.3036 9.16636 25.3239 9.22272 25.3534 9.27641C25.4071 9.37397 25.4607 9.48022 25.5135 9.59555C25.5399 9.65344 25.5746 9.70489 25.6154 9.74914C25.6184 9.80982 25.6309 9.87105 25.6537 9.93083C25.6956 10.0404 25.7364 10.1563 25.7757 10.2788C25.7956 10.341 25.8248 10.3974 25.8613 10.4472C25.8574 10.5091 25.8633 10.5728 25.8802 10.636C25.9112 10.7524 25.9408 10.8737 25.9686 11.0002C25.9829 11.0649 26.0072 11.1247 26.0396 11.1783C26.0302 11.2405 26.0305 11.3052 26.0422 11.3706C26.0638 11.4918 26.0838 11.6171 26.102 11.7466C26.1113 11.8128 26.1312 11.8747 26.1598 11.931C26.1457 11.9927 26.1415 12.0578 26.1486 12.1242C26.1618 12.2478 26.1733 12.3749 26.1832 12.5054C26.1882 12.5728 26.2044 12.6365 26.2298 12.6951C26.2117 12.7564 26.2034 12.8217 26.2065 12.8892C26.2123 13.0148 26.2166 13.1433 26.2192 13.2748C26.2206 13.3428 26.2333 13.4077 26.2556 13.4679C26.2342 13.5285 26.2223 13.5937 26.222 13.6617C26.2213 13.7882 26.2192 13.9174 26.2154 14.0492C26.2135 14.1174 26.2232 14.1832 26.2427 14.2446C26.2184 14.3043 26.2035 14.3691 26.2001 14.4373C26.1937 14.5644 26.1858 14.6938 26.1764 14.8256C26.1716 14.8938 26.1786 14.9602 26.1956 15.0226C26.1687 15.0814 26.1512 15.1458 26.145 15.214C26.1391 15.2789 26.1329 15.3444 26.1263 15.4103L25.9244 17.4267L27.1591 15.8285C27.1965 15.7801 27.2355 15.7306 27.2762 15.68C27.318 15.6279 27.3496 15.5707 27.371 15.511C27.4257 15.4794 27.4762 15.4381 27.5199 15.3874C27.6008 15.2936 27.686 15.1977 27.7751 15.1006C27.8207 15.0509 27.8561 14.9954 27.8814 14.9367C27.9384 14.9084 27.9918 14.8702 28.0388 14.8219C28.1267 14.7318 28.2176 14.6412 28.3112 14.551C28.3596 14.5042 28.3982 14.451 28.427 14.394C28.4855 14.3693 28.5409 14.3345 28.5907 14.2893C28.6845 14.2042 28.7804 14.12 28.8781 14.037C28.9291 13.9937 28.9709 13.9433 29.0032 13.8886C29.0628 13.8679 29.1201 13.8371 29.1725 13.7956C29.2716 13.7172 29.3722 13.6406 29.474 13.5662C29.5275 13.5271 29.5724 13.4805 29.6083 13.4289C29.6687 13.4131 29.7275 13.387 29.7824 13.3503C29.8868 13.2805 29.992 13.2135 30.0978 13.1497C30.1535 13.1161 30.2017 13.0745 30.2416 13.0272C30.3021 13.0173 30.3621 12.9974 30.4194 12.9669C30.5283 12.9088 30.6375 12.8545 30.7466 12.8045C30.8043 12.7781 30.8556 12.7433 30.8998 12.7021C30.9595 12.6997 31.0199 12.6878 31.079 12.6655C31.1914 12.6232 31.3032 12.5859 31.4141 12.554C31.4728 12.5371 31.5267 12.5117 31.5751 12.4794C31.6322 12.4864 31.6912 12.4848 31.7508 12.4735C31.8637 12.4522 31.9752 12.4371 32.0851 12.4284C32.1429 12.4238 32.1982 12.4108 32.2496 12.3906C32.3014 12.4087 32.3566 12.4196 32.4142 12.4221C32.5226 12.4268 32.6293 12.4384 32.7345 12.4573C32.7895 12.4672 32.8441 12.4688 32.897 12.4632C32.941 12.4933 32.9898 12.5178 33.0428 12.5353C33.1419 12.5679 33.2404 12.6081 33.3382 12.6564C33.3888 12.6814 33.4414 12.6983 33.4943 12.7075C33.529 12.7493 33.5702 12.7868 33.6175 12.8186C33.6625 12.8487 33.7074 12.8809 33.7523 12.9152C33.7955 12.9483 33.8372 12.9819 33.8773 13.016C33.9192 13.0516 33.9646 13.0802 34.0121 13.1019C34.0364 13.1482 34.0673 13.1919 34.1049 13.2317C34.1773 13.3084 34.2437 13.3875 34.3042 13.4686C34.3364 13.5118 34.3733 13.5492 34.4138 13.5806C34.4267 13.6303 34.4464 13.6792 34.4732 13.7259C34.5246 13.8154 34.5703 13.9075 34.6105 14.0021C34.6318 14.0521 34.6592 14.0975 34.6914 14.138C34.6923 14.19 34.7002 14.2428 34.7156 14.2951C34.7451 14.3949 34.7694 14.4973 34.7885 14.6022C34.7985 14.6572 34.8159 14.709 34.8394 14.7568C34.8289 14.8093 34.8255 14.8642 34.83 14.9203C34.8387 15.0268 34.8426 15.1355 34.8417 15.2463C34.8412 15.3041 34.8491 15.3601 34.8641 15.413C34.8438 15.4643 34.8305 15.5195 34.8253 15.5774C34.8155 15.6871 34.8013 15.7984 34.7829 15.9109C34.7733 15.9695 34.7727 16.0276 34.7801 16.0836C34.7518 16.1325 34.7302 16.1865 34.7167 16.2446C34.6911 16.3546 34.6618 16.4654 34.6287 16.5768C34.6114 16.6348 34.6036 16.6935 34.6042 16.751C34.5696 16.797 34.5412 16.8489 34.5208 16.906C34.482 17.0142 34.4399 17.1227 34.3946 17.2312C34.371 17.2878 34.3569 17.346 34.3515 17.404C34.312 17.4466 34.2781 17.496 34.2518 17.5514C34.2018 17.6566 34.149 17.7615 34.0935 17.866C34.0645 17.9205 34.0449 17.9777 34.0343 18.0355C33.9907 18.0745 33.9523 18.121 33.9209 18.1742C33.8614 18.2755 33.7993 18.376 33.735 18.4757C33.7013 18.5278 33.6769 18.5833 33.6614 18.6403C33.6146 18.6757 33.5723 18.7189 33.5365 18.7697C33.4685 18.8662 33.3984 18.9616 33.3263 19.0558C33.2885 19.1051 33.2597 19.1586 33.2398 19.2142C33.1902 19.2458 33.1445 19.2856 33.1048 19.3334C33.0293 19.4244 32.9519 19.514 32.8728 19.602C32.8313 19.6482 32.7985 19.6992 32.7743 19.753C32.7224 19.7806 32.6738 19.8166 32.6306 19.861C32.548 19.9458 32.464 20.0288 32.3785 20.1098C32.3336 20.1523 32.2969 20.2004 32.2685 20.252C32.2148 20.2751 32.1636 20.3069 32.1171 20.3475C32.0281 20.4251 31.9378 20.5004 31.8465 20.5734C31.7985 20.6117 31.7581 20.6563 31.7256 20.7049C31.6704 20.7232 31.617 20.7502 31.5673 20.7863C31.4724 20.8554 31.3765 20.9218 31.2799 20.9853C31.229 21.0188 31.185 21.0589 31.1484 21.1039C31.0922 21.1167 31.037 21.1382 30.9846 21.169C30.8843 21.2279 30.7834 21.2836 30.6821 21.336C30.6287 21.3636 30.5814 21.3984 30.5407 21.4386C30.4842 21.4452 30.4278 21.4603 30.3731 21.4847C30.321 21.5079 30.269 21.5301 30.2169 21.5514C30.1569 21.5759 30.0966 21.6006 30.0361 21.6254C29.9725 21.6515 29.916 21.6876 29.8677 21.7313C29.8028 21.7341 29.7374 21.7481 29.6738 21.7742C29.5538 21.8236 29.4332 21.8734 29.3121 21.9234C29.2487 21.9496 29.1923 21.9859 29.1441 22.0297C29.0794 22.0327 29.014 22.0468 28.9506 22.0731C28.8304 22.1229 28.7099 22.173 28.5893 22.2232C28.5259 22.2495 28.4696 22.286 28.4216 22.3298C28.3568 22.333 28.2915 22.3472 28.2281 22.3737C28.1077 22.4239 27.9874 22.4742 27.8672 22.5245C27.8039 22.551 27.7477 22.5875 27.6997 22.6315C27.635 22.6348 27.5697 22.6492 27.5064 22.6757C27.3858 22.7264 27.2656 22.7769 27.1458 22.8272C27.0826 22.8538 27.0266 22.8904 26.9787 22.9344C26.914 22.9379 26.8488 22.9524 26.7856 22.979C26.6647 23.03 26.5445 23.0807 26.4252 23.1312C26.362 23.1579 26.3059 23.1946 26.2581 23.2388C26.1933 23.2423 26.1281 23.2569 26.0649 23.2836C25.9437 23.335 25.8237 23.3858 25.7051 23.4362C25.6419 23.463 25.5859 23.4998 25.5382 23.544C25.4735 23.5476 25.4083 23.5623 25.3452 23.5892C25.2234 23.641 25.1033 23.6921 24.9851 23.7425C24.9221 23.7694 24.8663 23.8061 24.8187 23.8503C24.7542 23.854 24.6891 23.8688 24.6262 23.8957C24.5035 23.9481 24.3833 23.9995 24.2658 24.0498C24.2029 24.0767 24.1471 24.1136 24.0996 24.1578C24.035 24.1616 23.97 24.1765 23.9071 24.2035C23.7833 24.2566 23.6631 24.3082 23.5471 24.3581C23.484 24.3852 23.4282 24.4223 23.3806 24.4668C23.3158 24.4707 23.2507 24.4857 23.1876 24.5128C23.0613 24.5673 22.9413 24.6191 22.8283 24.6679C22.8099 24.6759 22.792 24.6847 22.7748 24.6943C22.7692 24.6815 22.7631 24.6688 22.7565 24.6563C22.6999 24.5486 22.642 24.4366 22.5831 24.3203C22.5532 24.2612 22.5146 24.2095 22.4699 24.1659C22.4618 24.1035 22.4436 24.0414 22.4145 23.9819C22.3603 23.8714 22.3054 23.7577 22.2501 23.641C22.2216 23.5811 22.1843 23.5283 22.1405 23.4834C22.1341 23.4207 22.1174 23.3581 22.0896 23.2978C22.0377 23.1851 21.9856 23.0701 21.9333 22.9529C21.9062 22.8923 21.8702 22.8386 21.8275 22.7927C21.8224 22.73 21.8071 22.667 21.7807 22.6061C21.7312 22.4916 21.6815 22.3753 21.632 22.2573C21.6062 22.196 21.5713 22.1414 21.5296 22.0946C21.5259 22.0316 21.512 21.9682 21.4869 21.9066C21.4397 21.7906 21.3925 21.673 21.3457 21.5541C21.3212 21.4922 21.2875 21.4368 21.2467 21.389C21.2444 21.3259 21.2319 21.2621 21.2082 21.1999C21.1634 21.0824 21.1188 20.9638 21.0747 20.844C21.0517 20.7818 21.0194 20.7258 20.9799 20.6772C20.979 20.6143 20.9679 20.5505 20.9457 20.4879C20.9036 20.3695 20.8619 20.2502 20.8207 20.1301C20.7992 20.0672 20.7681 20.0104 20.7296 19.9608C20.7302 19.8978 20.7207 19.8337 20.6999 19.7706C20.6605 19.651 20.6217 19.5306 20.5835 19.4097C20.5635 19.3464 20.5339 19.2889 20.4967 19.2384C20.4989 19.1756 20.491 19.1113 20.4718 19.0478C20.4355 18.9273 20.3998 18.8063 20.3649 18.6849C20.3466 18.6212 20.3185 18.5631 20.2828 18.5117C20.2866 18.449 20.2804 18.3846 20.263 18.3207C20.2299 18.1992 20.1976 18.0774 20.1662 17.9553C20.1498 17.8912 20.1234 17.8324 20.0892 17.7801C20.0948 17.7177 20.0904 17.6533 20.0749 17.589C20.0454 17.4667 20.0169 17.3442 19.9893 17.2217C19.9749 17.1573 19.9504 17.0978 19.9179 17.0445C19.9254 16.9824 19.9231 16.9181 19.9097 16.8534C19.8842 16.7304 19.8598 16.6074 19.8365 16.4845C19.8242 16.4198 19.8019 16.3597 19.7714 16.3055C19.781 16.244 19.781 16.1798 19.7699 16.115C19.7488 15.9913 19.729 15.8677 19.7104 15.7445C19.7006 15.6796 19.6806 15.6188 19.6523 15.5636C19.6643 15.5026 19.6668 15.4386 19.6583 15.3736C19.6422 15.2496 19.6275 15.1259 19.6143 15.0027C19.6073 14.9378 19.59 14.8765 19.5643 14.8204C19.5675 14.8073 19.5702 14.7941 19.5725 14.7808C19.6052 14.7469 19.6352 14.7093 19.6618 14.6683C19.733 14.5586 19.803 14.4496 19.8719 14.3412C19.9079 14.2845 19.9354 14.2247 19.9546 14.1633C20.0014 14.1196 20.0433 14.069 20.0788 14.012C20.1479 13.9008 20.2157 13.7904 20.2823 13.681C20.3171 13.6237 20.3434 13.5635 20.3615 13.5019C20.4072 13.4573 20.448 13.406 20.4823 13.3483C20.5494 13.2356 20.6149 13.1241 20.679 13.0138C20.7127 12.9559 20.7378 12.8952 20.7546 12.8333C20.7995 12.7878 20.8392 12.7357 20.8723 12.6774C20.9374 12.5627 21.0008 12.4497 21.0625 12.3384C21.0951 12.2794 21.119 12.218 21.1345 12.1555C21.1786 12.1089 21.2174 12.0557 21.2494 11.9964C21.3126 11.8793 21.3737 11.7645 21.4326 11.6522C21.4639 11.5925 21.4864 11.5304 21.5005 11.4676C21.5436 11.4198 21.5811 11.3656 21.6117 11.3055C21.673 11.1848 21.7316 11.0675 21.7874 10.9539C21.8174 10.8926 21.8384 10.8291 21.8507 10.7651C21.893 10.7155 21.9294 10.6595 21.9585 10.5976C21.9869 10.5373 22.0142 10.4782 22.0407 10.4206L22.0758 10.3439L22.0931 10.2613C22.1068 10.1955 22.1204 10.1287 22.1337 10.0612C22.1476 9.99114 22.1512 9.92142 22.1457 9.8536C22.1752 9.7925 22.1969 9.72627 22.2092 9.656C22.2325 9.52316 22.2548 9.3878 22.2761 9.25028C22.287 9.17998 22.2878 9.11045 22.2795 9.04317C22.3065 8.98111 22.3255 8.91428 22.335 8.84381C22.3531 8.70961 22.3701 8.57371 22.386 8.43644C22.3942 8.36581 22.3923 8.29633 22.3815 8.22946C22.4027 8.17493 22.4179 8.11708 22.426 8.05665ZM20.8227 8.97277C20.8193 8.98825 20.8164 9.00393 20.8139 9.01982C20.7942 9.14746 20.7735 9.27288 20.7519 9.39572C20.7406 9.46053 20.7379 9.52486 20.7429 9.58752C20.7157 9.64397 20.6951 9.70483 20.6824 9.76931C20.6757 9.80322 20.6689 9.83687 20.6621 9.87025C20.6488 9.89896 20.6352 9.92807 20.6213 9.95757C20.5942 10.0154 20.575 10.075 20.5634 10.135C20.5238 10.1815 20.4892 10.2337 20.4611 10.2912C20.4086 10.3982 20.3532 10.5091 20.295 10.6236C20.2659 10.6808 20.2449 10.7399 20.2314 10.7998C20.1905 10.8452 20.1544 10.8966 20.1247 10.9534C20.0685 11.0605 20.0102 11.1701 19.9497 11.2821C19.9191 11.3388 19.8966 11.3978 19.8817 11.4577C19.8394 11.5024 19.802 11.5531 19.7707 11.6095C19.7207 11.6998 19.6695 11.7914 19.617 11.8841C19.6166 11.8817 19.6162 11.8793 19.6157 11.8769C19.644 11.824 19.6646 11.7658 19.6758 11.7035C19.6864 11.6444 19.6976 11.5857 19.7094 11.5274C19.7225 11.4627 19.736 11.3991 19.75 11.3367C19.7647 11.2712 19.7679 11.2058 19.7609 11.1426C19.7964 11.0903 19.824 11.0312 19.8415 10.9666C19.8757 10.8408 19.9118 10.7203 19.9495 10.6047C19.97 10.5422 19.9794 10.4787 19.9788 10.4163C20.0186 10.3689 20.0516 10.3143 20.0755 10.2533C20.1221 10.1345 20.1707 10.0219 20.2209 9.91525C20.2481 9.85759 20.265 9.7977 20.2726 9.73764C20.3168 9.69727 20.3556 9.64925 20.3869 9.59415C20.4481 9.48623 20.5111 9.38562 20.5757 9.29185C20.6106 9.24107 20.6365 9.18666 20.6536 9.13057C20.7026 9.09964 20.7478 9.06072 20.7873 9.01397C20.7991 9.00005 20.8109 8.98632 20.8227 8.97277Z" fill="#886788"/>
</svg>
