<svg width="41" height="41" viewBox="0 0 41 41" fill="none" xmlns="http://www.w3.org/2000/svg">
<path d="M20.5 0.820007C9.63085 0.820007 0.819946 9.63091 0.819946 20.5C0.819946 31.3691 9.63085 40.18 20.5 40.18C31.3691 40.18 40.18 31.3691 40.18 20.5C40.18 9.63091 31.3691 0.820007 20.5 0.820007ZM28.0686 23.0236C28.0686 23.0236 29.809 24.7415 30.2375 25.5389C30.2498 25.5553 30.2559 25.5717 30.26 25.5799C30.4343 25.8731 30.4753 26.1006 30.3892 26.2708C30.2457 26.5537 29.7537 26.6931 29.5856 26.7054H26.5106C26.2974 26.7054 25.8505 26.65 25.3093 26.2769C24.8931 25.9858 24.4831 25.5082 24.0834 25.0428C23.4868 24.3499 22.9702 23.7513 22.4495 23.7513C22.3834 23.7512 22.3176 23.7616 22.2548 23.7821C21.8612 23.9092 21.3569 24.4709 21.3569 25.9674C21.3569 26.4348 20.9879 26.7033 20.7275 26.7033H19.3192C18.8395 26.7033 16.3405 26.5352 14.1265 24.2003C11.4164 21.3405 8.9769 15.6046 8.9564 15.5513C8.80265 15.1803 9.1204 14.9814 9.46685 14.9814H12.5726C12.9867 14.9814 13.122 15.2336 13.2163 15.457C13.327 15.7174 13.7329 16.7526 14.3991 17.917C15.4795 19.8153 16.1417 20.5861 16.6726 20.5861C16.7722 20.5849 16.8699 20.5596 16.9576 20.5123C17.6505 20.1269 17.5213 17.6567 17.4905 17.1442C17.4905 17.0478 17.4885 16.0392 17.1338 15.5554C16.8796 15.2049 16.4471 15.0716 16.1847 15.0224C16.2909 14.8759 16.4308 14.757 16.5926 14.676C17.0682 14.4382 17.9252 14.4033 18.7759 14.4033H19.2495C20.172 14.4156 20.4098 14.4751 20.7439 14.5591C21.4204 14.7211 21.4348 15.1577 21.3753 16.6522C21.3569 17.0765 21.3384 17.5562 21.3384 18.122C21.3384 18.245 21.3323 18.3762 21.3323 18.5156C21.3118 19.2762 21.2872 20.1392 21.8243 20.4939C21.8943 20.5378 21.9753 20.5612 22.058 20.5615C22.2445 20.5615 22.8062 20.5615 24.3273 17.9519C24.7964 17.1119 25.2041 16.239 25.5471 15.3402C25.5778 15.2869 25.668 15.1229 25.7746 15.0593C25.8533 15.0192 25.9405 14.9988 26.0288 14.9999H29.6799C30.0776 14.9999 30.3502 15.0593 30.4015 15.2131C30.4917 15.457 30.3851 16.2012 28.7184 18.4582L27.9743 19.4402C26.4634 21.4205 26.4634 21.5209 28.0686 23.0236V23.0236Z" fill="#886788"/>
</svg>
